<svg width="32" height="32" viewBox="0 0 32 32" fill="none" xmlns="http://www.w3.org/2000/svg">
<path d="M12 8.58125L12.0032 6.99687C12.004 5.93655 12.4258 4.91994 13.1758 4.17047C13.9259 3.421 14.9428 3 16.0032 3C18.2094 3 19.9938 4.7875 19.9938 6.99062V8.575C23.2157 9.53375 25.9851 11.6198 27.7959 14.4519C29.6067 17.284 30.3381 20.6732 29.8563 24H2.14065C1.66032 20.6745 2.39199 17.2873 4.20206 14.4565C6.01214 11.6258 8.7799 9.54048 12 8.58125ZM3.00003 26H29C29.2652 26 29.5196 26.1054 29.7071 26.2929C29.8947 26.4804 30 26.7348 30 27C30 27.2652 29.8947 27.5196 29.7071 27.7071C29.5196 27.8946 29.2652 28 29 28H3.00003C2.73481 28 2.48046 27.8946 2.29292 27.7071C2.10539 27.5196 2.00003 27.2652 2.00003 27C2.00003 26.7348 2.10539 26.4804 2.29292 26.2929C2.48046 26.1054 2.73481 26 3.00003 26ZM4.00003 22H28C28 20.4241 27.6896 18.8637 27.0866 17.4078C26.4835 15.9519 25.5996 14.629 24.4853 13.5147C23.371 12.4004 22.0481 11.5165 20.5922 10.9134C19.1363 10.3104 17.5759 10 16 10C14.4242 10 12.8637 10.3104 11.4078 10.9134C9.95192 11.5165 8.62905 12.4004 7.51475 13.5147C6.40044 14.629 5.51653 15.9519 4.91347 17.4078C4.31042 18.8637 4.00003 20.4241 4.00003 22ZM17.9938 8V6.99062C17.9938 6.46268 17.7841 5.95636 17.4107 5.58304C17.0374 5.20973 16.5311 5 16.0032 5C15.4727 5 14.964 5.21071 14.5889 5.58579C14.2139 5.96086 14.0032 6.46957 14.0032 7V8H17.9938Z" fill="#94B7FF"/>
</svg>
