<svg width="16" height="16" viewBox="0 0 16 16" fill="none" xmlns="http://www.w3.org/2000/svg">
<path d="M8.43596 13.4613V12.7467C8.43596 12.6751 8.4484 12.6084 8.47329 12.5467C8.49774 12.4844 8.53907 12.4242 8.59729 12.366L11.9906 8.98933C12.0564 8.93156 12.1248 8.88933 12.196 8.86267C12.2671 8.83511 12.3382 8.82133 12.4093 8.82133C12.4826 8.82133 12.5568 8.83556 12.632 8.864C12.7075 8.89289 12.7737 8.936 12.8306 8.99333L13.4473 9.62267C13.502 9.68844 13.5437 9.75689 13.5726 9.828C13.6011 9.89867 13.6153 9.96956 13.6153 10.0407C13.6153 10.1118 13.6017 10.1833 13.5746 10.2553C13.5475 10.3273 13.5053 10.3962 13.448 10.462L10.0706 13.8393C10.0124 13.8971 9.9524 13.9384 9.89063 13.9633C9.8284 13.9882 9.76129 14.0007 9.68929 14.0007H8.97396C8.81929 14.0007 8.69107 13.9496 8.58929 13.8473C8.48707 13.7451 8.43596 13.6167 8.43596 13.462M9.02529 13.4113H9.65863L11.9706 11.0953L11.354 10.4533L9.02529 12.778V13.4113ZM3.74396 14C3.43685 14 3.18063 13.8973 2.97529 13.692C2.76996 13.4867 2.66707 13.2304 2.66663 12.9233V3.07667C2.66663 2.77 2.76951 2.514 2.97529 2.30867C3.18107 2.10333 3.43729 2.00044 3.74396 2H8.55263C8.69618 2 8.83574 2.02889 8.97129 2.08667C9.10685 2.14444 9.22285 2.222 9.31929 2.31933L11.68 4.68C11.7764 4.77689 11.8537 4.89289 11.912 5.028C11.9702 5.16311 11.9993 5.30267 11.9993 5.44667V6.56333C11.9993 6.65844 11.9675 6.73778 11.904 6.80133C11.84 6.86489 11.7606 6.89667 11.666 6.89667C11.5713 6.89667 11.492 6.86489 11.428 6.80133C11.364 6.73778 11.3324 6.65867 11.3333 6.564V5.33333H9.20529C9.05018 5.33333 8.92174 5.28222 8.81996 5.18C8.71818 5.07778 8.66707 4.94933 8.66663 4.79467V2.66667H3.74396C3.64129 2.66667 3.54707 2.70933 3.46129 2.79467C3.37551 2.88 3.33285 2.974 3.33329 3.07667V12.9233C3.33329 13.0256 3.37596 13.1196 3.46129 13.2053C3.54663 13.2911 3.64063 13.3338 3.74329 13.3333H6.51263C6.60774 13.3333 6.68707 13.3651 6.75063 13.4287C6.81418 13.4922 6.84596 13.5716 6.84596 13.6667C6.84596 13.7618 6.81418 13.8411 6.75063 13.9047C6.68707 13.9682 6.60774 14 6.51263 14H3.74396ZM11.6706 10.7653L11.354 10.452L11.9706 11.0953L11.6706 10.7653Z" fill="#94B7FF"/>
</svg>
